<?xml version="1.0" encoding="utf-8"?>
<!-- Generator: Adobe Illustrator 24.0.1, SVG Export Plug-In . SVG Version: 6.00 Build 0)  -->
<svg version="1.1" id="Warstwa_1" xmlns:serif="http://www.serif.com/"
	 xmlns="http://www.w3.org/2000/svg" xmlns:xlink="http://www.w3.org/1999/xlink" x="0px" y="0px" viewBox="0 0 300 300"
	 style="enable-background:new 0 0 300 300;" xml:space="preserve">
<style type="text/css">
	.st0{fill:#e0c389;}
	.st1{fill:#150035;}
	.st2{fill:#FFFFFF;}
</style>
<g id="illustration_1_">
	<g id="XMLID_1023_">
		<g id="XMLID_977_">
			<g id="XMLID_1007_">
				<path id="XMLID_371_" class="st0" d="M150.4,209.3l4.5,71.9c0,0,0,0.1-0.1,0l-53.3-77.8c0,0,0,0,0,0l-6.4-30.4c0,0,0,0,0,0
					l181-153.9c0,0,0.1,0,0.1,0l-53.9,141.9c0,0,0,0,0,0L150.4,209.3C150.5,209.2,150.4,209.2,150.4,209.3z"/>
				<path id="XMLID_372_" class="st1" d="M153.9,284.4l-1.3-1.7l-53.8-78.3l0-0.9l-6.7-31.8l1.3-1.1L276,15.5l3.6,2.3l-0.7,2.1
					l-54.3,142.8l-0.7,0.5l-70.6,47.4l4.6,72.4L153.9,284.4z M104.2,202.3l47.4,69.2l-4.1-63.6l1.5-1l71.2-47.8L270,27.9L98.2,173.9
					L104.2,202.3z"/>
			</g>
			<g id="XMLID_970_">
				<g id="XMLID_1005_">
					<path id="XMLID_362_" class="st2" d="M276.1,19.1L101.6,203.3c0,0,0,0,0,0l-93.7-12c0,0,0-0.1,0-0.1L276.1,19.1
						C276.1,19,276.1,19,276.1,19.1z"/>
					<path id="XMLID_368_" class="st1" d="M102.6,206.3l-1.5-0.2L5.7,193.8L4.8,190l1.7-1.1L276.6,15.4l3.2,3.6l-1.7,1.9
						L102.6,206.3z M15.6,189.6l84.9,10.9L258.8,33.4L15.6,189.6z"/>
				</g>
				<g id="XMLID_1003_">
					
						<rect id="XMLID_367_" x="134.6" y="229" transform="matrix(0.8298 -0.558 0.558 0.8298 -108.6219 116.8798)" class="st1" width="5.5" height="15.2"/>
				</g>
				<g id="XMLID_1002_">
					
						<rect id="XMLID_366_" x="116.4" y="192.1" transform="matrix(0.8298 -0.558 0.558 0.8298 -96.6364 102.1464)" class="st1" width="5.5" height="34.8"/>
				</g>
				<g id="XMLID_1001_">
					
						<rect id="XMLID_365_" x="127.9" y="178.8" transform="matrix(0.8241 -0.5665 0.5665 0.8241 -86.3577 107.9393)" class="st1" width="5.5" height="28.5"/>
				</g>
			</g>
		</g>
		<g id="XMLID_947_">
			<g id="XMLID_963_">
				
					<rect id="XMLID_364_" x="273.7" y="154.8" transform="matrix(4.359488e-02 -0.999 0.999 4.359488e-02 113.7641 433.9697)" class="st1" width="19.7" height="5.5"/>
			</g>
			<g id="XMLID_949_">
				
					<rect id="XMLID_363_" x="267.2" y="119.5" transform="matrix(4.426945e-02 -0.999 0.999 4.426945e-02 150.4014 401.606)" class="st1" width="35.7" height="5.5"/>
			</g>
		</g>
		<g id="XMLID_981_">
			<g id="XMLID_7796_">
				<g id="XMLID_7803_">
					<path id="XMLID_358_" class="st1" d="M203.5,151.4c0.6-9.3-5.1-12.6-14.6-26.1c-8.2-11.6-19-21.3-31.5-28
						c-12.5-6.6-20.2-10.6-28.7-9.6l-7.9-2.1l-10.2,11.2l-0.2,0.3c-6.7,7.7-6.9,20.4,0.7,36.7c7.6,16.1,20.5,29.3,36.1,37.9
						c22.1,12.2,39.5,11.4,48.1,2.4l0.4-0.4l9.8-10.8L203.5,151.4z"/>
					<path id="XMLID_359_" class="st1" d="M177.4,183.6c-9.2,0-20-3.2-31.5-9.6c-16.4-9-29.6-22.9-37.3-39.2
						c-7.8-16.6-7.9-30.7-0.3-39.6l0.3-0.4l11.3-12.4l9.1,2.4c9.4-0.8,17.9,3.7,29.7,10c12.8,6.8,24,16.8,32.5,28.8
						c2.6,3.8,4.9,6.7,7,9.3c5.1,6.4,8.5,10.7,8.1,18.3l2.2,12.6l-11.3,12.3C192.3,181.2,185.5,183.6,177.4,183.6z M121.7,88.7
						l-9.1,10c-6.3,7.4-5.9,19.4,0.9,34c7.1,15.2,19.6,28.2,34.9,36.7c19.2,10.6,36.3,11.7,44.8,2.9l0.5-0.5l8.8-9.6l-1.9-10.5
						l0-0.3c0.4-5.6-1.9-8.5-6.9-14.8c-2-2.5-4.4-5.6-7.2-9.5c-8-11.4-18.5-20.7-30.6-27.1c-12.6-6.7-19.5-10.1-27.1-9.3l-0.5,0.1
						L121.7,88.7z"/>
				</g>
				<g id="XMLID_7794_">
					
						<ellipse id="XMLID_354_" transform="matrix(0.6742 -0.7386 0.7386 0.6742 -38.6428 160.9943)" class="st2" cx="163.2" cy="124.3" rx="33.1" ry="57.4"/>
					<path id="XMLID_355_" class="st1" d="M187.1,172.8c-3.3,0-6.7-0.4-10.4-1.2c-26.1-5.7-53.9-31.1-62-56.6
						c-4.1-12.9-2.7-24,4-31.3c6.7-7.3,17.6-9.7,30.8-6.8c26.1,5.7,53.9,31.1,62,56.6l0,0c4.1,12.9,2.7,24-4,31.3
						C202.7,170.1,195.7,172.8,187.1,172.8z M139.2,81.2c-7,0-12.6,2.1-16.4,6.2c-5.3,5.8-6.3,15-2.8,26
						c7.6,23.8,33.5,47.5,57.9,52.9c11.2,2.5,20.3,0.6,25.6-5.1c5.3-5.8,6.3-15,2.8-26l0,0c-7.6-23.8-33.5-47.5-57.9-52.9
						C145.1,81.6,142,81.2,139.2,81.2z"/>
				</g>
				<g id="XMLID_7801_">
					<path id="XMLID_350_" class="st1" d="M193.7,132.8c-6.2-16.4-25-33.5-41.9-38.2c-16.9-4.7-25.5,4.7-19.3,21.1
						c6.2,16.4,25,33.5,41.9,38.2C191.3,158.7,199.9,149.2,193.7,132.8z"/>
					<path id="XMLID_351_" class="st1" d="M182.5,157.9c-2.7,0-5.7-0.4-8.8-1.3c-17.6-4.9-37.2-22.8-43.7-39.9
						c-3.4-8.9-2.9-16.5,1.5-21.3c4.4-4.8,11.9-6,21.1-3.4c17.6,4.9,37.2,22.8,43.7,39.9c3.4,8.9,2.9,16.5-1.5,21.3
						C191.9,156.3,187.7,157.9,182.5,157.9z M143.8,96.2c-3.6,0-6.5,1-8.3,3c-2.9,3.1-3,8.8-0.4,15.6c6,15.6,23.9,32,40,36.5
						c7,2,12.7,1.3,15.5-1.8c2.9-3.1,3-8.8,0.4-15.6c-6-15.6-23.9-32-40-36.5C148.5,96.5,146,96.2,143.8,96.2z"/>
				</g>
				<g id="XMLID_7804_">
					<path id="XMLID_343_" class="st0" d="M187.9,139.2c-6.2-16.4-25-33.5-41.9-38.2c-6.1-1.7-11.1-1.5-14.7,0.1
						c-1.3,3.8-1,8.8,1.2,14.7c6.2,16.4,25,33.5,41.9,38.2c6.1,1.7,11.1,1.5,14.7-0.1C190.5,150.1,190.2,145.1,187.9,139.2z"/>
					<path id="XMLID_347_" class="st1" d="M182.4,157.9c-2.7,0-5.6-0.4-8.7-1.3c-17.6-4.9-37.2-22.8-43.7-39.9
						c-2.4-6.3-2.8-12-1.3-16.6l0.4-1.1l1.1-0.5c4.4-2,10.1-2.1,16.6-0.3c17.6,4.9,37.2,22.8,43.7,39.9l0,0c2.4,6.3,2.8,12,1.3,16.6
						l-0.4,1.1l-1.1,0.5C188,157.4,185.4,157.9,182.4,157.9z M133.6,103.1c-0.7,3.1-0.2,7.1,1.5,11.6c6,15.6,23.9,32,40,36.5
						c4.6,1.3,8.7,1.4,11.7,0.5c0.7-3.1,0.2-7.1-1.5-11.6l0,0c-6-15.6-23.9-32-40-36.5C140.7,102.3,136.7,102.1,133.6,103.1z"/>
				</g>
			</g>
			<g id="XMLID_1019_">
				
					<rect id="XMLID_346_" x="157.1" y="169.6" transform="matrix(0.6742 -0.7386 0.7386 0.6742 -73.5911 176.5886)" class="st0" width="12.5" height="4.2"/>
			</g>
			<g id="XMLID_1020_">
				
					<rect id="XMLID_345_" x="104.3" y="107.1" transform="matrix(0.6742 -0.7386 0.7386 0.6742 -44.6597 117.2747)" class="st0" width="12.5" height="4.2"/>
			</g>
			<g id="XMLID_1021_">
				
					<rect id="XMLID_344_" x="173.7" y="114.2" transform="matrix(0.6741 -0.7386 0.7386 0.6741 -28.0197 169.154)" class="st0" width="8.1" height="4.2"/>
			</g>
			<g id="XMLID_1012_">
				<g id="XMLID_1032_">
					<path id="XMLID_339_" class="st1" d="M144.2,101.3l-4.6,5.1l4.6,9l8.1-2.3l0.2,0l11.6,36.7c2.6,1.4,5.2,2.6,7.8,3.5l4.1,0.9
						l4.6-5.1l-20.1-43.6L144.2,101.3z"/>
					<path id="XMLID_340_" class="st1" d="M176.7,156.4l-5.3-1.2c-2.9-1-5.6-2.2-8.4-3.7l-0.8-0.4l-11.3-35.6l-7.9,2.3L137,106
						l6.5-7.1l18.6,4.6l21.1,45.8L176.7,156.4z M165.9,148.2c2.3,1.2,4.6,2.2,6.8,2.9l2.6,0.6l2.8-3.1L159,107.1l-14.2-3.5l-2.8,3
						l3.2,6.1l7-2l1.7,0.4l0.5,1.2L165.9,148.2z"/>
				</g>
				<g id="XMLID_1016_">
					<g id="XMLID_1017_">
						<path id="XMLID_333_" class="st2" d="M157.1,107.9l-0.2,0l-8.1,2.3l-4.6-9l11.4-3.1l9.6,2.1l15.5,48.7c0,0,0,0,0,0l-11.3-2.5
							L157.1,107.9z"/>
						<path id="XMLID_335_" class="st1" d="M180.6,151.1l-0.5,0l-12.5-2.7l-12-37.9l-7.9,2.3l-6.6-12.8l14.4-3.9l11.3,2.5l15.9,50.5
							v2.1L180.6,151.1z M171,144.7l6.5,1.4l-14-44l-7.9-1.7l-8.4,2.3l2.6,5.1l7-2l1.7,0.4l0.5,1.2L171,144.7z"/>
					</g>
				</g>
			</g>
		</g>
		<g id="XMLID_681_">
			<g id="XMLID_1008_">
				<path id="XMLID_329_" class="st1" d="M155,281.2l80-99.9c0,0,0-0.1,0-0.1l-84.5,28c0,0,0,0,0,0L155,281.2
					C155,281.2,155,281.2,155,281.2z"/>
				<path id="XMLID_330_" class="st1" d="M155.9,284.4l-3.6-1.2l-0.1-1.9l-4.7-74.2l2.2-0.6L236,178l2.4,3.3l-1.2,1.7L155.9,284.4z
					 M153.3,211.2l4,62.8l69.9-87.3L153.3,211.2z"/>
			</g>
			<g id="XMLID_1006_">
				<path id="XMLID_312_" class="st2" d="M276.3,19l-10.6,206.5c0,0,0,0,0,0l-115.1-16.3c0,0,0,0,0-0.1L276.3,19
					C276.3,18.9,276.3,19,276.3,19z"/>
				<path id="XMLID_326_" class="st1" d="M266.6,228.4l-1.2-0.1l-116.7-16.5l-1.3-2.7l0.7-1.3l127-192l4,1.1l0,2.2l0,0.1
					l-10.7,207.7L266.6,228.4z M155.1,207.1l108,15.3l10-193.7L155.1,207.1z"/>
			</g>
			<g id="XMLID_980_">
				
					<rect id="XMLID_325_" x="258.9" y="70.7" transform="matrix(0.168 -0.9858 0.9858 0.168 136.5166 326.4495)" class="st1" width="5.5" height="23.3"/>
			</g>
			<g id="XMLID_979_">
				
					<rect id="XMLID_324_" x="264.3" y="90.3" transform="matrix(0.1378 -0.9905 0.9905 0.1378 135.5392 346.9324)" class="st1" width="5.5" height="10.7"/>
			</g>
			<g id="XMLID_976_">
				<polygon id="XMLID_323_" class="st0" points="185.2,237.3 184.1,218.6 189.6,218.2 190.7,237 				"/>
			</g>
			<g id="XMLID_975_">
				
					<rect id="XMLID_322_" x="173.2" y="218.7" transform="matrix(0.9983 -5.873980e-02 5.873980e-02 0.9983 -12.8573 10.7208)" class="st0" width="5.5" height="10.7"/>
			</g>
			<g id="XMLID_974_">
				
					<rect id="XMLID_321_" x="174.3" y="234.4" transform="matrix(0.9983 -5.900582e-02 5.900582e-02 0.9983 -13.9825 10.8659)" class="st0" width="5.5" height="15.6"/>
			</g>
		</g>
	</g>
</g>
</svg>
