<?xml version="1.0" encoding="utf-8"?>
<!-- Generator: Adobe Illustrator 24.0.1, SVG Export Plug-In . SVG Version: 6.00 Build 0)  -->
<svg version="1.1" id="Warstwa_1" xmlns:serif="http://www.serif.com/"
	 xmlns="http://www.w3.org/2000/svg" xmlns:xlink="http://www.w3.org/1999/xlink" x="0px" y="0px" viewBox="0 0 300 300"
	 style="enable-background:new 0 0 300 300;" xml:space="preserve">
<style type="text/css">
	.st0{fill:#150035;}
	.st1{fill:#FFFFFF;}
	.st2{fill:#E0C389;}
	.st3{fill:#FFB000;}
</style>
<g id="illustration">
	<g id="XMLID_11923_">
		<g id="XMLID_11924_">
			<g id="XMLID_11925_">
				<g id="XMLID_11985_">
					<g id="XMLID_12005_">
						<g id="XMLID_12021_">
							<g id="XMLID_12025_">
								<path id="XMLID_408_" class="st0" d="M169.2,128.5c-8.1-10.2-17-8.1-39.5-13.2c-19.3-4.3-39.6-4.1-58.7,0.8
									c-19.1,4.9-30.7,8.1-38.6,17l-10.2,5.3l0,21.1l0.1,0.5c0.4,14.2,12.1,27.6,35.2,37.1c23,9.5,48.6,10.9,72.8,5.1
									c34.1-8.2,51.3-25.4,51.8-42.7l0.1-0.8v-20.3L169.2,128.5z"/>
							</g>
							<g id="XMLID_12022_">
								<path id="XMLID_2137_" class="st0" d="M101.5,209.2c-15.7,0-31.2-3-45.4-8.8c-23.6-9.7-36.9-24-37.4-40.3l-0.1-23.9l11.5-6
									c8.8-9.6,21.9-13,39.9-17.6c19.5-5,40.4-5.3,60.4-0.8c6.2,1.4,11.4,2.2,15.9,3c11.7,1.9,18.8,3.1,25.4,11.1l14,10.8
									l-0.1,23.2c-0.6,20.6-21,37.8-54.5,45.9C121.3,208,111.4,209.2,101.5,209.2z M25.8,140.6l0,18.9c0.5,13.7,12.2,25.7,33,34.3
									c21.7,8.9,46.7,10.7,70.6,4.9c29.8-7.2,48.6-22.2,49.1-39.3l0.1-1l0-18.3l-12.2-9.5c-5-6.2-10.1-7.1-21.2-8.9
									c-4.4-0.7-9.8-1.6-16.3-3c-18.9-4.2-38.6-4-57.1,0.8c-19.3,5-29.7,7.9-36.8,15.9l-1,0.8L25.8,140.6z"/>
							</g>
						</g>
						<g id="XMLID_12016_">
							<g id="XMLID_12020_">
								<path id="XMLID_407_" class="st1" d="M158.7,105.8c31.2,18,31.2,47.3,0,65.3c-31.2,18-81.9,18-113.1,0
									c-31.2-18-31.2-47.3,0-65.3C76.9,87.7,127.5,87.7,158.7,105.8z"/>
							</g>
							<g id="XMLID_12017_">
								<path id="XMLID_2130_" class="st0" d="M102.2,188.1c-21.1,0-42.2-4.6-58.3-13.9c-16.3-9.4-25.2-22.1-25.2-35.7
									c0-13.7,9-26.3,25.2-35.7c32.2-18.6,84.5-18.6,116.7,0c16.3,9.4,25.2,22.1,25.2,35.7c0,13.7-9,26.4-25.2,35.7
									C144.4,183.4,123.3,188.1,102.2,188.1z M102.2,95.8c-19.8,0-39.7,4.4-54.8,13.1c-14,8.1-21.6,18.6-21.6,29.6
									c0,11,7.7,21.5,21.6,29.6c30.2,17.4,79.3,17.4,109.5,0c14-8.1,21.6-18.6,21.6-29.6c0-11-7.7-21.5-21.6-29.6l0,0
									C141.8,100.1,122,95.8,102.2,95.8z"/>
							</g>
						</g>
						<g id="XMLID_12011_">
							<g id="XMLID_12015_">
								<path id="XMLID_406_" class="st0" d="M141.7,118.5c-21.8-11-57.2-11-79,0c-21.8,11-21.8,28.8,0,39.8c21.8,11,57.2,11,79,0
									C163.5,147.3,163.5,129.5,141.7,118.5z"/>
							</g>
							<g id="XMLID_12012_">
								<path id="XMLID_2123_" class="st0" d="M102.2,170.1c-14.9,0-29.8-2.9-41.1-8.6c-11.8-6-18.3-14.2-18.3-23.1
									c0-8.9,6.5-17.1,18.3-23.1c22.7-11.4,59.5-11.4,82.2,0c11.8,6,18.3,14.2,18.3,23.1c0,8.9-6.5,17.1-18.3,23.1
									C131.9,167.2,117.1,170.1,102.2,170.1z M102.2,113.8c-13.7,0-27.4,2.6-37.9,7.9c-9.2,4.6-14.4,10.7-14.4,16.7
									c0,6,5.2,12.1,14.4,16.7c20.9,10.5,54.9,10.5,75.8,0c9.2-4.6,14.4-10.7,14.4-16.7c0-6-5.2-12.1-14.4-16.7
									C129.6,116.4,115.9,113.8,102.2,113.8z"/>
							</g>
						</g>
						<g id="XMLID_12006_">
							<g id="XMLID_12010_">
								<path id="XMLID_405_" class="st2" d="M141.7,130.4c-21.8-11-57.2-11-79,0c-7.9,4-12.9,8.8-15.1,14c2.2,5.1,7.2,10,15.1,14
									c21.8,11,57.2,11,79,0c7.9-4,12.9-8.8,15.1-14C154.5,139.3,149.5,134.4,141.7,130.4z"/>
							</g>
							<g id="XMLID_12007_">
								<path id="XMLID_2116_" class="st0" d="M102.2,170.1c-14.9,0-29.8-2.9-41.1-8.6c-8.3-4.2-14.1-9.6-16.7-15.7l-0.6-1.4
									l0.6-1.4c2.6-6.1,8.4-11.5,16.7-15.7c22.7-11.4,59.5-11.4,82.2,0h0c8.3,4.2,14.1,9.6,16.7,15.7l0.6,1.4l-0.6,1.4
									c-2.6,6.1-8.4,11.5-16.7,15.7C131.9,167.2,117.1,170.1,102.2,170.1z M51.6,144.4c2.2,4,6.6,7.7,12.7,10.8
									c20.9,10.5,54.9,10.5,75.8,0c6.1-3.1,10.5-6.8,12.7-10.8c-2.2-4-6.6-7.7-12.7-10.8c-20.9-10.5-54.9-10.5-75.8,0
									C58.2,136.7,53.8,140.4,51.6,144.4z"/>
							</g>
						</g>
					</g>
					<g id="XMLID_12003_">
						<g id="XMLID_12004_">
							<rect id="XMLID_404_" x="144.2" y="178.3" class="st3" width="5.5" height="17.4"/>
						</g>
					</g>
					<g id="XMLID_12001_">
						<g id="XMLID_12002_">
							<rect id="XMLID_403_" x="31.2" y="163.6" class="st2" width="5.5" height="17.4"/>
						</g>
					</g>
					<g id="XMLID_11999_">
						<g id="XMLID_12000_">
							<rect id="XMLID_402_" x="106.9" y="111" class="st2" width="5.5" height="11.2"/>
						</g>
					</g>
				</g>
				<g id="XMLID_11926_">
					<g id="XMLID_11950_">
						<g id="XMLID_11980_">
							<g id="XMLID_11984_">
								<path id="XMLID_400_" class="st0" d="M266.6,168.3c-4-12.4-13-13.7-32.3-26.4c-16.5-10.9-35.5-17.9-55.2-20.1
									c-19.6-2.2-31.5-3.3-42.1,2.2l-11.4,1.3l-7.5,19.7l-0.1,0.5c-4.7,13.4,1.5,30,19.7,47.2c18.1,17,41.6,27.5,66.2,30.6
									c34.8,4.4,57-5.5,63.6-21.5l0.4-0.7l7.2-19L266.6,168.3z"/>
							</g>
							<g id="XMLID_11981_">
								<path id="XMLID_2081_" class="st0" d="M220,228c-5.2,0-10.7-0.4-16.5-1.1c-25.8-3.3-50-14.5-68.2-31.6
									c-18.6-17.5-25.9-35.6-20.6-50.9l0.2-0.6l8.2-21.8l12.9-1.5c11.7-5.9,25.1-4.4,43.5-2.3c20,2.2,39.7,9.4,56.8,20.7
									c5.3,3.5,9.8,6.1,13.8,8.4c10.2,5.9,16.5,9.5,19.8,19.4l9.3,15l-8.3,21.6C264.2,219.2,245.7,228,220,228z M128.2,128.7
									l-6.7,17.7c-4.4,13,2.2,28.4,18.7,43.8c17.1,16,39.9,26.6,64.2,29.7c30.4,3.9,53.3-3.5,59.9-19.3l0.4-0.9l6.5-17.1l-8-13.2
									c-2.4-7.6-6.9-10.2-16.7-15.8c-3.8-2.2-8.6-5-14.1-8.6c-16.2-10.7-34.7-17.4-53.6-19.5c-19.8-2.2-30.6-3.1-40,1.8l-1.3,0.4
									L128.2,128.7z"/>
							</g>
						</g>
						<g id="XMLID_11975_">
							<g id="XMLID_11979_">
								<path id="XMLID_399_" class="st1" d="M264.8,143.3c22.8,28,12.4,55.3-23.2,61c-35.6,5.8-82.9-12.2-105.7-40.2
									c-22.8-27.9-12.4-55.3,23.2-61C194.7,97.4,242.1,115.4,264.8,143.3z"/>
							</g>
							<g id="XMLID_11976_">
								<path id="XMLID_2074_" class="st0" d="M227.9,209c-34.2,0-74.2-17.4-94.7-42.5c-11.9-14.5-15.7-29.6-10.9-42.4
									c4.9-12.8,17.7-21.5,36.3-24.4c36.7-5.9,85.6,12.7,109.1,41.4l0,0c11.9,14.5,15.7,29.6,10.9,42.4s-17.7,21.5-36.3,24.4
									C237.6,208.6,232.8,209,227.9,209z M173.1,105.6c-4.6,0-9.1,0.3-13.4,1c-15.9,2.6-26.8,9.7-30.7,20
									c-3.9,10.3-0.5,22.8,9.7,35.3c22,27,68,44.5,102.4,38.9c15.9-2.6,26.8-9.7,30.7-20c3.9-10.3,0.5-22.8-9.7-35.3
									C242.8,122,205.3,105.6,173.1,105.6z"/>
							</g>
						</g>
						<g id="XMLID_11970_">
							<g id="XMLID_11974_">
								
									<ellipse id="XMLID_398_" transform="matrix(0.3552 -0.9348 0.9348 0.3552 -14.5438 286.4654)" class="st0" cx="200.4" cy="153.8" rx="28.2" ry="55.8"/>
							</g>
							<g id="XMLID_11971_">
								<path id="XMLID_2067_" class="st0" d="M223.9,190.3c-24.3,0-54.5-12.4-70.1-29.5c-8.9-9.8-12.1-19.7-8.9-28.1
									c3.2-8.4,12.2-13.7,25.3-15.1c25.3-2.7,59.7,10.5,76.8,29.2c8.9,9.8,12.1,19.7,8.9,28.1c-3.2,8.4-12.2,13.7-25.3,15.1
									C228.4,190.2,226.2,190.3,223.9,190.3z M177.1,124.4c-2.1,0-4.2,0.1-6.2,0.3c-10.2,1.1-17.3,4.9-19.4,10.5
									c-2.1,5.6,0.6,13.2,7.5,20.8c15.8,17.3,47.6,29.3,70.8,26.9c10.2-1.1,17.3-4.9,19.4-10.5c2.1-5.6-0.6-13.2-7.5-20.8
									C227.3,135.8,199.5,124.4,177.1,124.4z"/>
							</g>
						</g>
						<g id="XMLID_11951_">
							<g id="XMLID_11968_">
								<path id="XMLID_397_" class="st2" d="M240.1,160.3c-16.5-18-49.5-30.6-73.8-28.1c-8.8,0.9-15.2,3.7-19,7.7
									c0.2,5.6,3.2,11.9,9.1,18.4c16.5,18,49.5,30.6,73.8,28.1c8.8-0.9,15.2-3.7,19-7.7C249,173.2,246.1,166.8,240.1,160.3z"/>
							</g>
							<g id="XMLID_11952_">
								<path id="XMLID_2060_" class="st0" d="M223.9,190.3c-24.3,0-54.5-12.4-70.1-29.5c-6.3-6.9-9.8-14-10-20.6l-0.1-1.5l1.1-1.1
									c4.6-4.8,11.9-7.8,21.2-8.8c25.3-2.6,59.7,10.5,76.8,29.2c6.3,6.9,9.8,14,10,20.6l0.1,1.5l-1.1,1.1
									c-4.6,4.8-11.9,7.8-21.2,8.8C228.4,190.2,226.2,190.3,223.9,190.3z M151,141.4c0.7,4.5,3.4,9.5,8,14.6
									c15.8,17.3,47.6,29.3,70.8,26.9c6.8-0.7,12.2-2.6,15.7-5.6c-0.7-4.5-3.4-9.5-8-14.6l0,0c-15.8-17.3-47.5-29.3-70.8-26.9
									C159.9,136.5,154.5,138.4,151,141.4z"/>
							</g>
						</g>
					</g>
					<g id="XMLID_11948_">
						<g id="XMLID_11949_">
							
								<rect id="XMLID_396_" x="216.2" y="212.4" transform="matrix(0.3555 -0.9347 0.9347 0.3555 -56.0837 348.89)" class="st2" width="17.4" height="5.5"/>
						</g>
					</g>
					<g id="XMLID_11946_">
						<g id="XMLID_11947_">
							
								<rect id="XMLID_395_" x="115.9" y="158.5" transform="matrix(0.3555 -0.9347 0.9347 0.3555 -70.4198 220.3404)" class="st2" width="17.4" height="5.5"/>
						</g>
					</g>
					<g id="XMLID_11944_">
						<g id="XMLID_11945_">
							
								<rect id="XMLID_394_" x="209.5" y="133.3" transform="matrix(0.3555 -0.9347 0.9347 0.3555 11.5475 288.7487)" class="st2" width="11.2" height="5.5"/>
						</g>
					</g>
				</g>
			</g>
		</g>
	</g>
</g>
</svg>
