<?xml version="1.0" encoding="utf-8"?>
<!-- Generator: Adobe Illustrator 24.0.1, SVG Export Plug-In . SVG Version: 6.00 Build 0)  -->
<svg version="1.1" id="Warstwa_1" xmlns="http://www.w3.org/2000/svg" xmlns:xlink="http://www.w3.org/1999/xlink" x="0px" y="0px"
	 viewBox="0 0 440 350" style="enable-background:new 0 0 440 350;" xml:space="preserve">
<style type="text/css">
	.st0{fill:#e0c389;stroke:#150035;stroke-width:2;stroke-miterlimit:10;}
	.st1{fill:#150035;stroke:#150035;stroke-width:2;stroke-miterlimit:10;}
	.st2{fill:#FFFFFF;stroke:#150035;stroke-width:2;stroke-miterlimit:10;}
</style>
<g id="XMLID_15975_">
	<g id="XMLID_16080_">
		<g id="XMLID_16081_">
			<path id="XMLID_16085_" class="st0" d="M412.2,106.1l-52.9,30.5c-20.3,11.7-35.7,30.5-43.1,52.8l-19,56.9
				c-9.9,29.6-30.3,54.5-57.3,70l-43,24.5l-169-98.3l43.8-25.4c26.5-15.4,46.5-39.7,56.4-68.7l20.1-58.4
				c7.5-21.8,22.6-40.2,42.5-51.8l51.1-29.7L412.2,106.1z"/>
			<path id="XMLID_16082_" class="st1" d="M196.9,342.6L24.7,242.5l46.1-26.7c26.1-15.2,45.9-39.3,55.7-67.8l20.1-58.4
				c7.6-22.2,23-40.9,43.2-52.7l51.9-30.2l173.6,99.4l-55.3,31.9c-20,11.5-35.1,30-42.4,51.9l-19,56.9c-10,30-30.6,55.1-58,70.9
				L196.9,342.6z M31,242.5L196.9,339l42.2-24.1c26.7-15.3,46.9-39.9,56.6-69.1l19-56.9c7.6-22.7,23.1-41.7,43.8-53.6l50.6-29.1
				L241.7,10.3l-50.3,29.3c-19.6,11.4-34.5,29.5-41.8,51L129.5,149c-10.1,29.3-30.3,54-57.1,69.5L31,242.5z"/>
		</g>
	</g>
	<g id="XMLID_15976_">
		<g id="XMLID_16057_">
			<g id="XMLID_16062_">
				<g id="XMLID_16071_">
					<g id="XMLID_16078_">
						
							<ellipse id="XMLID_16079_" transform="matrix(6.456223e-02 -0.9979 0.9979 6.456223e-02 -119.1032 463.3475)" class="st0" cx="187.6" cy="295.2" rx="9.5" ry="16.4"/>
					</g>
					<g id="XMLID_16076_">
						<path id="XMLID_16077_" class="st2" d="M172.4,285.7c6.6-3.3,17-2.6,23.2,1.5c6.2,4.1,5.8,10.1-0.9,13.4
							c-6.6,3.3-17,2.6-23.2-1.5C165.4,294.9,165.8,288.9,172.4,285.7z"/>
					</g>
					<g id="XMLID_16072_">
						<path id="XMLID_16073_" class="st1" d="M174.4,302.3c-3.4-2.3-5.2-5.2-5-8.3c0.2-3,2.3-5.7,6.1-7.6l0,0
							c7.2-3.6,18.6-2.8,25.3,1.6c3.4,2.3,5.2,5.2,5,8.3c-0.2,3-2.3,5.7-6.1,7.6c-3.1,1.5-6.9,2.3-10.8,2.3
							C183.7,306.2,178.3,304.9,174.4,302.3z M176.4,288.4L176.4,288.4c-3,1.5-4.7,3.5-4.9,5.8c-0.1,2.3,1.3,4.5,4.1,6.4
							c6.2,4.1,16.6,4.8,23.2,1.5c3-1.5,4.7-3.5,4.9-5.8c0.1-2.3-1.3-4.5-4.1-6.4c-3.5-2.4-8.5-3.6-13.3-3.6
							C182.7,286.3,179.2,287,176.4,288.4z"/>
					</g>
				</g>
				<g id="XMLID_16067_">
					<g id="XMLID_16068_">
						<g id="XMLID_16069_">
							<path id="XMLID_16070_" class="st0" d="M189.3,290.2l1.3,5c0.1,0.4,0,0.8-0.3,1.1c-0.6,0.6-1.9,0.9-3.1,0.7l-8.6-1.5
								c-1-0.2-1.7-0.8-1.4-1.4l0,0c0.2-0.6,1.3-0.9,2.3-0.7l7.1,1.2l-1.1-4.2c-0.2-0.6,0.6-1.2,1.6-1.2h0
								C188.2,289.1,189.2,289.6,189.3,290.2z"/>
						</g>
					</g>
				</g>
				<g id="XMLID_16063_">
					<g id="XMLID_16064_">
						<g id="XMLID_16065_">
							<path id="XMLID_16066_" class="st1" d="M191.7,291.8l1.3,5c0.1,0.4,0,0.8-0.3,1.1c-0.6,0.6-1.9,0.9-3.1,0.7L181,297
								c-1-0.2-1.7-0.8-1.4-1.4l0,0c0.2-0.6,1.3-0.9,2.3-0.7l7.1,1.2l-1.1-4.2c-0.2-0.6,0.6-1.2,1.6-1.2h0
								C190.5,290.7,191.5,291.1,191.7,291.8z"/>
						</g>
					</g>
				</g>
			</g>
			<g id="XMLID_16060_">
				<path id="XMLID_16061_" class="st1" d="M209.2,300.5c1.1-2.2,1.9-5.7-1.1-10.3l-1.8,1.2c1.9,3,2.3,5.7,1,8.1L209.2,300.5z"/>
			</g>
			<g id="XMLID_16058_">
				<path id="XMLID_16059_" class="st1" d="M203.7,305.6c0.1,0,2.3-1.1,4.1-3.2l-1.6-1.4c-1.5,1.7-3.4,2.6-3.4,2.6L203.7,305.6z"/>
			</g>
		</g>
		<g id="XMLID_16052_">
			<polygon id="XMLID_16056_" class="st2" points="364.8,123 229.9,45.6 237.5,41.3 372.3,118.7 			"/>
			<path id="XMLID_16053_" class="st1" d="M364.8,124.9l-0.8-0.4L226.8,45.6l10.7-6.2l0.8,0.4l137.2,78.8L364.8,124.9z M233.1,45.6
				l131.7,75.6l4.4-2.5L237.5,43.1L233.1,45.6z"/>
		</g>
		<g id="XMLID_16047_">
			<polygon id="XMLID_16051_" class="st2" points="379.5,114.4 227.5,26.8 235,22.5 387,110 			"/>
			<path id="XMLID_16048_" class="st1" d="M379.5,116.2L224.4,26.8l10.7-6.2l0.8,0.5L390.2,110L379.5,116.2z M230.6,26.8l148.9,85.8
				l4.4-2.5L235,24.3L230.6,26.8z"/>
		</g>
		<g id="XMLID_16042_">
			<polygon id="XMLID_16046_" class="st2" points="350,131.9 244.1,71.3 251.6,67 357.6,127.6 			"/>
			<path id="XMLID_16043_" class="st1" d="M350,133.7L240.9,71.4l10.7-6.2l109.1,62.4L350,133.7z M247.2,71.3L350,130.1l4.4-2.5
				L251.6,68.8L247.2,71.3z"/>
		</g>
		<g id="XMLID_16037_">
			<polygon id="XMLID_16041_" class="st2" points="155.2,279.9 72.1,232.6 79.6,228.2 162.8,275.5 			"/>
			<path id="XMLID_16038_" class="st1" d="M155.3,281.7l-0.8-0.4L69,232.6l10.7-6.2l0.8,0.4l85.5,48.6L155.3,281.7z M75.2,232.6
				l80,45.5l4.4-2.5l-80-45.5L75.2,232.6z"/>
		</g>
		<g id="XMLID_16032_">
			<path id="XMLID_16036_" class="st2" d="M205.3,75.5c-1.8,1.8-3.5,3.8-5.1,5.7L324,151.8c1.7-2,3.4-3.9,5.2-5.7L205.3,75.5z"/>
			<path id="XMLID_16033_" class="st1" d="M324.4,153.8L197.7,81.7l1.2-1.4c1.6-1.9,3.3-3.9,5.2-5.8l0.8-0.9l126.8,72.3l-1.4,1.4
				c-1.7,1.7-3.4,3.6-5.1,5.6L324.4,153.8z M202.5,80.8l121.1,69.1c1-1.2,2-2.3,3-3.3L205.5,77.4C204.5,78.6,203.5,79.7,202.5,80.8z
				"/>
		</g>
		<g id="XMLID_16027_">
			<path id="XMLID_16031_" class="st2" d="M190.7,97l123.6,70.5c1.2-2.2,2.5-4.3,3.9-6.4L194.6,90.5C193.2,92.6,191.9,94.8,190.7,97
				z"/>
			<path id="XMLID_16028_" class="st1" d="M314.9,169.6l-126.3-72l0.7-1.3c1.2-2.2,2.5-4.4,3.9-6.6l0.8-1.2l126.5,72.1l-0.9,1.4
				c-1.4,2.1-2.7,4.2-3.9,6.3L314.9,169.6z M192.8,96.4l120.9,68.9c0.7-1.3,1.5-2.5,2.3-3.8l-121-69
				C194.3,93.9,193.5,95.2,192.8,96.4z"/>
		</g>
		<g id="XMLID_16022_">
			<path id="XMLID_16026_" class="st2" d="M177.4,59.3c-1.8,1.8-3.5,3.8-5.1,5.7l7.1,4.3c1.7-2,3.4-3.9,5.2-5.7L177.4,59.3z"/>
			<path id="XMLID_16023_" class="st1" d="M179.7,71.5l-9.7-6l1.1-1.4c1.6-1.9,3.3-3.9,5.2-5.8l0.9-0.9l9.9,6.1l-1.4,1.4
				c-1.7,1.7-3.4,3.6-5.1,5.6L179.7,71.5z M174.6,64.7l4.4,2.7c1-1.2,2-2.3,3-3.4l-4.4-2.7C176.6,62.5,175.6,63.6,174.6,64.7z"/>
		</g>
		<g id="XMLID_16017_">
			<path id="XMLID_16021_" class="st2" d="M162.9,80.9l6.8,4.2c1.2-2.2,2.5-4.3,3.9-6.4l-6.9-4.3C165.3,76.5,164.1,78.7,162.9,80.9z
				"/>
			<path id="XMLID_16018_" class="st1" d="M170.3,87.3l-9.5-5.8l0.7-1.3c1.2-2.2,2.5-4.4,3.9-6.6l0.8-1.3l9.6,5.9l-0.9,1.3
				c-1.4,2.1-2.7,4.2-3.9,6.3L170.3,87.3z M164.9,80.3l4.2,2.6c0.7-1.3,1.5-2.5,2.3-3.8l-4.2-2.6C166.4,77.8,165.7,79.1,164.9,80.3z
				"/>
		</g>
		<g id="XMLID_16012_">
			<polygon id="XMLID_16016_" class="st2" points="175.7,137.8 298,208 300.4,200.7 178.1,130.5 			"/>
			<path id="XMLID_16013_" class="st1" d="M298.9,210.3l-125.1-71.8l3.5-10.3l125,71.7L298.9,210.3z M177.5,137.1l119.6,68.6
				l1.4-4.3L179,132.8L177.5,137.1z"/>
		</g>
		<g id="XMLID_16007_">
			<polygon id="XMLID_16011_" class="st2" points="170,155.4 292.4,225.6 294.8,218.3 172.5,148.1 			"/>
			<path id="XMLID_16008_" class="st1" d="M293.2,227.9l-125.1-71.8l3.5-10.3l125,71.7L293.2,227.9z M171.9,154.7l119.6,68.6
				l1.4-4.3l-119.5-68.6L171.9,154.7z"/>
		</g>
		<g id="XMLID_16002_">
			<polygon id="XMLID_16006_" class="st2" points="163.8,172 286.2,242.2 288.6,234.9 166.3,164.7 			"/>
			<path id="XMLID_16003_" class="st1" d="M287.1,244.5l-125.1-71.8l3.5-10.3l125,71.7L287.1,244.5z M165.7,171.3l119.6,68.6
				l1.4-4.3L167.2,167L165.7,171.3z"/>
		</g>
		<g id="XMLID_15997_">
			<polygon id="XMLID_16001_" class="st2" points="149.3,122.4 156.6,126.9 159,119.6 151.8,115.1 			"/>
			<path id="XMLID_15998_" class="st1" d="M157.4,129.2l-10-6.2l3.5-10.3l9.9,6.2L157.4,129.2z M151.2,121.7l4.5,2.8l1.4-4.3
				l-4.5-2.8L151.2,121.7z"/>
		</g>
		<g id="XMLID_15992_">
			<polygon id="XMLID_15996_" class="st2" points="143.7,140 150.9,144.5 153.4,137.2 146.2,132.7 			"/>
			<path id="XMLID_15993_" class="st1" d="M151.8,146.9l-10-6.2l3.5-10.3l9.9,6.2L151.8,146.9z M145.6,139.3l4.5,2.8l1.4-4.3
				l-4.5-2.8L145.6,139.3z"/>
		</g>
		<g id="XMLID_15987_">
			<polygon id="XMLID_15991_" class="st2" points="137.5,156.6 144.7,161.1 147.2,153.8 140,149.3 			"/>
			<path id="XMLID_15988_" class="st1" d="M145.6,163.5l-10-6.2l3.5-10.3l9.9,6.2L145.6,163.5z M139.4,155.9l4.5,2.8l1.4-4.3
				l-4.5-2.8L139.4,155.9z"/>
		</g>
		<g id="XMLID_15985_">
			
				<rect id="XMLID_15986_" x="190.2" y="138.5" transform="matrix(0.5047 -0.8633 0.8633 0.5047 -109.0567 282.544)" class="st1" width="3.1" height="195.6"/>
		</g>
		<g id="XMLID_15983_">
			
				<rect id="XMLID_15984_" x="171.6" y="161.5" transform="matrix(0.5031 -0.8642 0.8642 0.5031 -120.3283 268.3191)" class="st1" width="3.1" height="154.6"/>
		</g>
		<g id="XMLID_15981_">
			
				<rect id="XMLID_15982_" x="230.3" y="42.2" transform="matrix(0.5047 -0.8633 0.8633 0.5047 -6.0329 269.4521)" class="st1" width="3.1" height="195.6"/>
		</g>
		<g id="XMLID_15979_">
			
				<rect id="XMLID_15980_" x="164.3" y="168.4" transform="matrix(0.5031 -0.8642 0.8642 0.5031 -129.8995 265.4462)" class="st1" width="3.1" height="154.6"/>
		</g>
		<g id="XMLID_15977_">
			
				<rect id="XMLID_15978_" x="196.6" y="128.6" transform="matrix(0.5031 -0.8642 0.8642 0.5031 -79.4476 273.5942)" class="st1" width="3.1" height="154.6"/>
		</g>
	</g>
</g>
</svg>
