<?xml version="1.0" encoding="UTF-8" standalone="no"?>
<!DOCTYPE svg PUBLIC "-//W3C//DTD SVG 1.1//EN" "http://www.w3.org/Graphics/SVG/1.1/DTD/svg11.dtd">
<svg width="100%" height="100%" viewBox="0 0 64 64" version="1.1" xmlns="http://www.w3.org/2000/svg" xmlns:xlink="http://www.w3.org/1999/xlink" xml:space="preserve" xmlns:serif="http://www.serif.com/" style="fill-rule:evenodd;clip-rule:evenodd;stroke-linejoin:round;stroke-miterlimit:2;">
    <path d="M63.91,38.65L55.45,15.47C57.03,14.93 58.16,13.48 58.2,11.72C58.21,11.18 57.79,10.74 57.25,10.73C56.69,10.73 56.27,11.15 56.26,11.68C56.24,12.84 55.31,13.76 54.12,13.77C53.42,13.77 52.76,13.42 52.36,12.83C52.2,12.6 51.96,12.45 51.68,12.41L34.97,10.14L34.97,6.12C35.34,5.96 35.68,5.73 35.98,5.44C36.57,4.84 36.89,4.05 36.89,3.23C36.89,1.5 35.48,0.09 33.75,0.09L30.27,0.09C29.44,0.09 28.66,0.41 28.05,1.01C27.46,1.6 27.13,2.39 27.13,3.23C27.13,4.68 28.11,5.9 29.45,6.26L29.45,9.38L12.57,7.07C12.19,7.02 11.82,7.19 11.62,7.51C11.24,8.1 10.59,8.45 9.88,8.45C8.77,8.45 7.84,7.58 7.75,6.46C7.71,5.93 7.25,5.51 6.71,5.56C6.18,5.6 5.77,6.06 5.81,6.6C5.93,8.27 7.06,9.64 8.57,10.15L0.05,33.44C0.01,33.54 0.01,33.64 0.01,33.74C0.01,33.76 0,33.77 0,33.78L0,33.85C0.05,38.6 4.45,42.46 9.87,42.46C15.31,42.46 19.74,38.57 19.74,33.78C19.74,33.63 19.7,33.5 19.64,33.37L11.17,10.16C11.81,9.94 12.39,9.58 12.85,9.07L29.42,11.34L29.42,54.03L25.08,54.03C24.54,54.03 24.11,54.46 24.11,55L24.11,58.24L21.09,58.24C20.55,58.24 20.12,58.67 20.12,59.21L20.12,62.95C20.12,63.49 20.55,63.92 21.09,63.92L42.9,63.92C43.44,63.92 43.87,63.49 43.87,62.95L43.87,59.21C43.87,58.67 43.44,58.24 42.9,58.24L39.88,58.24L39.88,55C39.88,54.46 39.45,54.03 38.91,54.03L34.96,54.03L34.96,12.09L51.02,14.27C51.49,14.83 52.12,15.22 52.81,15.46L44.34,38.67C44.34,38.68 44.34,38.68 44.33,38.69L44.32,38.72C44.31,38.75 44.31,38.79 44.31,38.82C44.29,38.9 44.26,38.97 44.26,39.06C44.26,43.85 48.69,47.74 54.13,47.74C59.57,47.74 64,43.85 64,39.06C64,38.91 63.96,38.78 63.91,38.65ZM9.87,12.24L17.37,32.81L2.35,32.81L9.87,12.24ZM9.87,40.52C5.88,40.52 2.57,38.01 2.02,34.75L17.72,34.75C17.17,38.01 13.86,40.52 9.87,40.52ZM41.94,61.98L22.06,61.98L22.06,60.18L41.93,60.18L41.93,61.98L41.94,61.98ZM37.94,58.24L26.06,58.24L26.06,55.97L37.94,55.97L37.94,58.24ZM31.37,54.03L31.37,5.4C31.37,4.86 30.94,4.43 30.4,4.43L30.25,4.43C29.59,4.43 29.05,3.89 29.05,3.23C29.05,2.91 29.18,2.61 29.39,2.39C29.63,2.16 29.93,2.03 30.25,2.03L33.73,2.03C34.39,2.03 34.93,2.57 34.93,3.23C34.93,3.55 34.8,3.85 34.58,4.08C34.39,4.27 34.14,4.39 33.89,4.42C33.39,4.47 33.02,4.89 33.02,5.39L33.02,54.04L31.37,54.04L31.37,54.03ZM61.64,38.09L46.61,38.09L54.12,17.51L61.64,38.09ZM54.13,45.8C50.14,45.8 46.83,43.29 46.28,40.03L61.98,40.03C61.42,43.29 58.12,45.8 54.13,45.8Z" style="fill:white;fill-rule:nonzero;"/>
</svg>
