<?xml version="1.0" encoding="UTF-8" standalone="no"?>
<!DOCTYPE svg PUBLIC "-//W3C//DTD SVG 1.1//EN" "http://www.w3.org/Graphics/SVG/1.1/DTD/svg11.dtd">
<svg width="100%" height="100%" viewBox="0 0 64 64" version="1.1" xmlns="http://www.w3.org/2000/svg" xmlns:xlink="http://www.w3.org/1999/xlink" xml:space="preserve" xmlns:serif="http://www.serif.com/" style="fill-rule:evenodd;clip-rule:evenodd;stroke-linejoin:round;stroke-miterlimit:2;">
    <path d="M32.4,43.1C31.6,43.8 30.4,43.9 29.6,43.2C29.1,42.8 28.9,42.2 28.9,41.7C28.9,41.2 29.1,40.7 29.5,40.3C31.8,38 31.8,34.2 29.5,31.8C25.6,27.9 25.6,21.5 29.5,17.7C31.8,15.4 31.8,11.6 29.5,9.2C22.8,2.3 12,2.3 5.4,9.2C-1.2,16 -2.1,25.7 4.7,36.3C9.7,44.1 22.2,54.1 28.4,58.8C30.5,60.4 33.5,60.4 35.7,58.8C41.9,54.1 54.3,44.1 59.4,36.3C66.2,25.7 65.3,16.1 58.6,9.2C53.5,4 46.2,2.7 40,5.3C37,6.6 35.2,9.7 35.3,13C35.4,15.7 34.4,18.4 32.4,20.5C30.1,22.8 30.1,26.7 32.4,29C36.3,32.9 36.3,39.2 32.4,43.1Z" style="fill-rule:nonzero;"/>
</svg>
