<svg id="SvgjsSvg1001" width="288" height="288" xmlns="http://www.w3.org/2000/svg" version="1.1" xmlns:xlink="http://www.w3.org/1999/xlink" xmlns:svgjs="http://svgjs.com/svgjs"><defs id="SvgjsDefs1002"></defs><g id="SvgjsG1008" transform="matrix(0.9167,0,0,0.9167,11.995200000000011,11.995230505371097)"><svg xmlns="http://www.w3.org/2000/svg" width="288" height="288" viewBox="0 0 48 48"><g transform="translate(0 -1004.362)" fill="#000000" class="color000 svgShape"><circle cx="24" cy="1028.362" r="24" fill="#3b5079" class="color3a6c87 svgShape"></circle><path fill="#ffffff" style="line-height:normal;text-indent:0;text-align:start;text-decoration-line:none;text-decoration-style:solid;text-decoration-color:#000;text-transform:none;block-progression:tb;isolation:auto;mix-blend-mode:normal" d="m 24.011841,1013.3612 a 0.50005,0.50005 0 0 0 -0.04883,0 0.50005,0.50005 0 0 0 -0.365235,0.1992 l -1.5,2 a 0.50005,0.50005 0 0 0 -0.09961,0.2988 l 0,0.5821 c -1.082673,0.3858 -2.045972,1.0479 -2.796875,1.9257 l -3.611328,0 a 0.50005,0.50005 0 0 0 -0.173829,0 l -0.03125,0 0,0.01 a 0.50005,0.50005 0 0 0 -0.386718,0.4941 c 1.5e-5,0.5368 -0.285194,1.0305 -0.75,1.2989 -0.464793,0.2683 -1.035207,0.2683 -1.5,0 -0.464807,-0.2684 -0.750016,-0.7621 -0.75,-1.2989 a 0.50005,0.50005 0 0 0 -0.507813,-0.5078 0.50005,0.50005 0 0 0 -0.492187,0.5078 c -2.3e-5,0.8137 0.410618,1.5559 1.066406,2.0215 l -3.0351562,8.6719 a 0.50005,0.50005 0 0 0 -0.027344,0.2598 0.50005,0.50005 0 0 0 -0.00391,0.047 c -1.77e-5,1.6069 0.8583755,3.0931 2.2500002,3.8965 1.39161,0.8034 3.10839,0.8034 4.5,0 1.391624,-0.8034 2.250017,-2.2896 2.25,-3.8965 a 0.50005,0.50005 0 0 0 -0.002,-0.037 0.50005,0.50005 0 0 0 -0.02539,-0.2695 l -3.035159,-8.6738 c 0.515643,-0.3675 0.869221,-0.9056 0.996093,-1.5196 l 6.066407,0 0,1.4922 a 0.50005,0.50005 0 0 0 0.5,0.5 l 0.0039,0 0,17.125 c -1.561791,0.251 -2.914643,0.8976 -3.742187,1.877 l -2.261719,0 a 0.50005,0.50005 0 0 0 -0.5,0.5 l 0,2 a 0.50005,0.50005 0 0 0 0.5,0.5 l 15.005859,0 a 0.50005,0.50005 0 0 0 0.5,-0.5 l 0,-2 a 0.50005,0.50005 0 0 0 -0.5,-0.5 l -2.255859,0 c -0.832008,-0.984 -2.189261,-1.6321 -3.746088,-1.8828 l 0,-17.1192 a 0.50005,0.50005 0 0 0 0.496094,-0.5 l 0,-1.4922 6.066406,0 c 0.127075,0.6153 0.481214,1.1558 0.998047,1.5235 l -3.033203,8.6699 a 0.50005,0.50005 0 0 0 -0.02734,0.2598 0.50005,0.50005 0 0 0 -0.0039,0.047 c -1.8e-5,1.6069 0.858376,3.0931 2.25,3.8965 1.39161,0.8034 3.10839,0.8034 4.5,0 1.391625,-0.8034 2.250017,-2.2896 2.25,-3.8965 a 0.50005,0.50005 0 0 0 -0.002,-0.037 0.50005,0.50005 0 0 0 -0.02539,-0.2695 l -3.03512,-8.6719 c 0.653664,-0.4661 1.062483,-1.2092 1.0625,-2.0215 a 0.50005,0.50005 0 0 0 -0.492188,-0.5078 0.50005,0.50005 0 0 0 -0.507812,0.5078 c -1.2e-5,0.5367 -0.285217,1.0305 -0.75,1.2989 -0.464793,0.2683 -1.035207,0.2683 -1.5,0 -0.464783,-0.2684 -0.749989,-0.7622 -0.75,-1.2989 a 0.50005,0.50005 0 0 0 -0.384766,-0.4941 l 0,-0.01 -0.0332,0 a 0.50005,0.50005 0 0 0 -0.173828,0 l -3.623047,0 c -0.754125,-0.8632 -1.710567,-1.5149 -2.785159,-1.8964 l 0,-0.6114 a 0.50005,0.50005 0 0 0 -0.09961,-0.2988 l -1.5,-2 a 0.50005,0.50005 0 0 0 -0.386718,-0.2012 z m -0.01367,1.334 1,1.334 0,4.332 -1,0 -1,0 0,-4.332 1,-1.334 z m -2,2.8262 0,0.8476 -1.376953,0 c 0.415839,-0.3492 0.878865,-0.6325 1.376953,-0.8476 z m 4,0.023 c 0.488455,0.2096 0.942129,0.4868 1.353515,0.8242 l -1.353515,0 0,-0.8242 z m -12.500002,0.8223 a 0.5,0.5 0 0 0 -0.5,0.5 0.5,0.5 0 0 0 0.5,0.5 0.5,0.5 0 0 0 0.5,-0.5 0.5,0.5 0 0 0 -0.5,-0.5 z m 21,0 a 0.5,0.5 0 0 0 -0.5,0.5 0.5,0.5 0 0 0 0.5,0.5 0.5,0.5 0 0 0 0.5,-0.5 0.5,0.5 0 0 0 -0.5,-0.5 z m -21.517578,2.9297 c 0.343197,0.073 0.695953,0.073 1.039062,0 l 2.824219,8.0703 -3.345703,0 -3.341797,0 2.824219,-8.0703 z m 21,0 c 0.343831,0.073 0.697317,0.074 1.041015,0 l 2.822266,8.0683 -3.345703,0 -3.341797,0 2.824219,-8.0683 z m -10.478516,0.061 0.496094,0 0.503906,0 0,17.002 -1,0 0,-17.002 z m -13.369141,9.0078 3.365235,0 3.365234,0 c -0.158883,1.0411 -0.686487,1.9951 -1.615234,2.5313 -1.083603,0.6256 -2.416397,0.6256 -3.5,0 -0.928748,-0.5362 -1.456351,-1.4902 -1.615235,-2.5313 z m 21,0 3.365235,0 3.365234,0 c -0.158883,1.0411 -0.686487,1.9951 -1.615234,2.5313 -1.083603,0.6256 -2.416397,0.6256 -3.5,0 -0.928747,-0.5362 -1.456351,-1.4902 -1.615235,-2.5313 z m -7.226562,8.9942 c 1.494129,-0.016 2.889753,0.3834 3.833984,1 l -7.46875,0 c 0.902095,-0.5873 2.207369,-0.9845 3.634766,-1 z m -6.908203,2 14.005859,0 0,1 -14.005859,0 0,-1 z" color="#000" font-family="sans-serif" font-weight="400" overflow="visible" white-space="normal" class="colorfff svgShape"></path></g></svg></g></svg>